HIERARCHY
ROOT Hips
{
	OFFSET 0.000000 0.000000 0.000000
	CHANNELS 6 Xposition Yposition Zposition Zrotation Yrotation Xrotation 
	JOINT LHipJoint
	{
		OFFSET 0.000000 0.000000 0.000000
		CHANNELS 3 Zrotation Yrotation Xrotation
		JOINT LeftUpLeg
		{
			OFFSET 1.363060 -1.794630 0.839290
			CHANNELS 3 Zrotation Yrotation Xrotation
			JOINT LeftLeg
			{
				OFFSET 2.448110 -6.726130 0.000000
				CHANNELS 3 Zrotation Yrotation Xrotation
				JOINT LeftFoot
				{
					OFFSET 2.562200 -7.039590 0.000000
					CHANNELS 3 Zrotation Yrotation Xrotation
					JOINT LeftToeBase
					{
						OFFSET 0.157640 -0.433110 2.322550
						CHANNELS 3 Zrotation Yrotation Xrotation
						End Site
						{
							OFFSET 0.000000 0.000000 0.000000
						}
					}
				}
			}
		}
	}
	JOINT RHipJoint
	{
		OFFSET 0.000000 0.000000 0.000000
		CHANNELS 3 Zrotation Yrotation Xrotation
		JOINT RightUpLeg
		{
			OFFSET -1.305520 -1.794630 0.839290
			CHANNELS 3 Zrotation Yrotation Xrotation
			JOINT RightLeg
			{
				OFFSET -2.542530 -6.985550 0.000000
				CHANNELS 3 Zrotation Yrotation Xrotation
				JOINT RightFoot
				{
					OFFSET -2.568260 -7.056230 0.000000
					CHANNELS 3 Zrotation Yrotation Xrotation
					JOINT RightToeBase
					{
						OFFSET -0.164730 -0.452590 2.363150
						CHANNELS 3 Zrotation Yrotation Xrotation
						End Site
						{
							OFFSET 0.000000 0.000000 0.000000
						}
					}
				}
			}
		}
	}
}
MOTION
Frames: 28
Frame Time: 0.008333
-9.748154 17.205463 0.687773 66.739780 85.124167 90.848017 -11.949371 5.369627 2.789203 -9.205418 2.896206 -3.037732 -1.139639 0.770532 13.987118 0.324378 -7.256506 25.864581 -3.860900 -0.000000 -68.639600 8.625876 -1.207024 3.891894 9.007981 -0.893194 -43.750527 3.345157 -0.423124 17.283060 0.367674 2.516087 -0.366068 -0.133600 0.000000 -39.936901
-9.544303 17.137367 0.718393 63.773325 84.881873 87.775520 -11.920620 5.471660 2.758371 -9.189697 3.219105 -2.865437 -1.120824 0.821884 15.007417 0.332907 -7.746285 25.813291 -4.110600 0.000000 -66.399201 8.676762 -1.106755 3.902807 8.582281 -0.234399 -44.653683 3.037824 -0.786256 21.121736 0.103129 1.798589 -2.632862 -0.216800 0.000000 -35.854600
-9.345572 17.075427 0.745882 62.220870 84.700865 86.050841 -11.903527 5.547813 2.714229 -9.101559 3.517067 -2.771006 -1.081099 0.879354 16.236950 0.348558 -8.132859 25.721717 -4.306100 0.000000 -63.647300 8.730421 -0.995103 3.837809 8.216124 0.217968 -45.346560 2.745004 -1.136417 24.977261 -0.152040 1.175561 -4.942991 -0.228500 -0.000000 -32.398700
-9.151854 17.021633 0.769533 61.912302 84.606934 85.517661 -11.911504 5.594541 2.652083 -8.915378 3.814398 -2.789611 -1.019138 0.941627 17.678133 0.372956 -8.381540 25.579763 -4.429900 0.000000 -60.499600 8.776412 -0.894760 3.709194 7.956535 0.459435 -45.751017 2.492534 -1.445021 28.538528 -0.379883 0.649696 -7.105300 -0.187600 0.000000 -29.988100
-8.962807 16.977520 0.789053 62.770928 84.610078 86.119393 -11.951279 5.609237 2.573316 -8.622503 4.118093 -2.952129 -0.935157 1.005880 19.313671 0.407193 -8.443754 25.382132 -4.458299 0.000000 -57.168300 8.805456 -0.826827 3.530476 7.839417 0.486846 -45.847672 2.298710 -1.699186 31.600477 -0.567820 0.235768 -9.012868 -0.115400 0.000000 -28.780200
-8.777850 16.943974 0.804562 64.839896 84.706911 87.921246 -12.022893 5.589147 2.482501 -8.228702 4.424696 -3.281677 -0.830732 1.068349 21.113689 0.451435 -8.270703 25.121828 -4.368100 -0.000000 -53.906500 8.811105 -0.806582 3.317195 7.878218 0.310002 -45.656812 2.170696 -1.896720 34.048949 -0.711823 -0.062388 -10.611472 -0.032200 -0.000000 -28.768701
-8.596373 16.921239 0.816703 68.288875 84.878685 91.111384 -12.117660 5.531724 2.385769 -7.757441 4.719211 -3.783502 -0.708646 1.125039 23.035537 0.505111 -7.818298 24.791404 -4.139100 -0.000000 -50.965700 8.793101 -0.840597 3.083624 8.063036 -0.056600 -45.221796 2.107466 -2.042359 35.850847 -0.814028 -0.249064 -11.894214 0.047000 -0.000000 -29.761300
-8.417761 16.908916 0.826518 73.354711 85.093818 95.939670 -12.218785 5.435137 2.288140 -7.241807 4.983958 -4.448927 -0.572772 1.172359 25.030710 0.567146 -7.058992 24.378511 -3.760299 -0.000000 -48.552800 8.758774 -0.927482 2.843804 8.366838 -0.587316 -44.592513 2.102469 -2.143532 37.026605 -0.880845 -0.341550 -12.880181 0.113200 -0.000001 -31.437600
-8.241411 16.906168 0.835150 80.196727 85.313276 102.574758 -12.302742 5.300732 2.192388 -6.717443 5.205878 -5.260945 -0.428490 1.208079 27.051104 0.636480 -5.988561 23.863780 -3.233300 0.000000 -46.792501 8.723914 -1.057888 2.611160 8.754592 -1.243987 -43.815354 2.145604 -2.207603 37.631377 -0.920956 -0.369155 -13.600317 0.163100 0.000000 -33.428600
-8.066721 16.911882 0.843734 88.638781 85.497587 110.847294 -12.343866 5.136760 2.099184 -6.218829 5.382140 -6.201232 -0.284177 1.232941 29.052024 0.712568 -4.629181 23.221405 -2.574400 -0.000000 -45.685400 8.710394 -1.212896 2.397558 9.190031 -1.973653 -42.929800 2.223735 -2.239012 37.742395 -0.943331 -0.366412 -14.089291 0.197300 0.000000 -35.373300
-7.893149 16.924833 0.853227 97.924635 85.619627 120.007580 -12.325921 4.960006 2.008996 -5.779258 5.520222 -7.254440 -0.151598 1.251818 30.991999 0.795946 -3.026420 22.427064 -1.814700 0.000001 -45.168300 8.736674 -1.365610 2.211000 9.637439 -2.711884 -41.967019 2.320148 -2.237412 37.451969 -0.956128 -0.368189 -14.377143 0.218900 0.000000 -37.016001
-7.720244 16.943847 0.864237 106.838475 85.676136 128.845119 -12.254932 4.789602 1.923311 -5.432384 5.635579 -8.408954 -0.043001 1.272042 32.836269 0.887314 -1.246664 21.460300 -0.997800 0.000000 -45.066700 8.804085 -1.491384 2.055499 10.059283 -3.393011 -40.953407 2.416589 -2.199663 36.859657 -0.965992 -0.403038 -14.490083 0.231600 0.000000 -38.198800
-7.547644 16.967840 0.877057 114.254912 85.683802 136.238187 -12.156031 4.635880 1.844443 -5.210654 5.740390 -9.652167 0.034861 1.298523 34.556959 0.986651 0.632440 20.318587 -0.174000 0.000000 -45.208900 8.895582 -1.580175 1.933157 10.415608 -3.965584 -39.916089 2.497688 -2.126359 36.065463 -0.977730 -0.489145 -14.454841 0.238100 0.000000 -38.870100
-7.375121 16.995938 0.891643 119.618671 85.667293 141.632158 -12.054893 4.496284 1.773251 -5.133619 5.839764 -10.970498 0.082668 1.331059 36.137369 1.092084 2.527493 19.013248 0.605900 0.000000 -45.395100 8.990001 -1.638544 1.846834 10.675605 -4.396485 -38.879832 2.554296 -2.024938 35.155225 -0.994286 -0.636580 -14.293000 0.239800 0.000000 -39.093400
-7.202646 17.027530 0.907648 122.902447 85.648581 144.997523 -11.963752 4.362913 1.709081 -5.206203 5.930597 -12.348930 0.105289 1.366414 37.566360 1.201252 4.363480 17.579482 1.299800 0.000000 -45.533800 9.075940 -1.678019 1.798307 10.823237 -4.671576 -37.866401 2.583407 -1.906855 34.198188 -1.015679 -0.841384 -14.023516 0.236000 0.000001 -38.994900
-7.030258 17.062164 0.924475 124.369757 85.646418 146.593387 -11.882982 4.229823 1.649486 -5.416889 6.012287 -13.776568 0.106711 1.402072 38.844901 1.310010 6.070166 16.040531 1.874500 -0.000000 -45.336000 9.152050 -1.707791 1.786716 10.860838 -4.790575 -36.888497 2.586066 -1.782490 33.241263 -1.039322 -1.088448 -13.656762 0.224900 -0.000000 -38.751800
-6.858110 17.099608 0.941432 124.344979 85.673652 146.737369 -11.807558 4.094967 1.593153 -5.747739 6.079133 -15.240935 0.090565 1.436718 39.971069 1.415834 7.603015 14.444208 2.315700 0.000001 -44.740600 9.222046 -1.732498 1.806261 10.802345 -4.770521 -35.950245 2.566126 -1.659315 32.311241 -1.059933 -1.350469 -13.195493 0.203800 0.000001 -38.556100
-6.686432 17.139694 0.957824 123.137960 85.735877 145.730190 -11.731542 3.958563 1.539800 -6.175798 6.122782 -16.728507 0.060398 1.469826 40.940087 1.517779 8.944391 12.854295 2.628500 0.000000 -43.908400 9.290694 -1.754091 1.847019 10.669073 -4.643860 -35.048350 2.529493 -1.541842 31.415255 -1.070569 -1.593021 -12.635312 0.170199 0.000000 -38.585800
-6.515434 17.182341 0.972951 121.068917 85.834213 143.880668 -11.650220 3.821296 1.488464 -6.672276 6.140558 -18.229687 0.018085 1.501925 41.759676 1.613046 10.081341 11.289655 2.821200 0.000000 -42.659300 9.361113 -1.775021 1.898404 10.489850 -4.448617 -34.170273 2.483220 -1.431656 30.538819 -1.065370 -1.787798 -11.966166 0.122900 0.000001 -38.983601
-6.345266 17.227379 0.986356 118.422110 85.963305 141.462540 -11.560303 3.683389 1.440201 -7.211811 6.122629 -19.730875 -0.032946 1.532418 42.427507 1.701957 11.030081 9.795419 2.917800 0.000000 -41.227900 9.435294 -1.797250 1.948304 10.292199 -4.231228 -33.301852 2.434992 -1.329091 29.659425 -1.039446 -1.909088 -11.181931 0.062500 -0.000001 -39.803800
-6.175955 17.274588 0.997664 115.495908 86.116690 138.763614 -11.460499 3.544114 1.395785 -7.770016 6.062554 -21.221596 -0.090541 1.560613 42.948566 1.783936 11.807336 8.374564 2.936800 0.000000 -39.594099 9.512969 -1.823834 1.987206 10.102938 -4.031411 -32.424885 2.391331 -1.232843 28.743900 -0.991470 -1.948406 -10.274988 -0.008600 0.000000 -41.062600
-6.007441 17.323523 1.006749 112.557063 86.286473 136.042777 -11.350825 3.402484 1.357402 -8.329515 5.949744 -22.690612 -0.152355 1.584976 43.321675 1.860158 12.441427 7.034914 2.899400 -0.000000 -37.931600 9.592900 -1.856862 2.006932 9.942697 -3.884894 -31.525634 2.357369 -1.141429 27.765665 -0.922860 -1.906997 -9.248541 -0.086101 0.000000 -42.677301
-5.839523 17.373596 1.013660 109.846012 86.466846 133.534983 -11.232297 3.257918 1.327799 -8.878352 5.774632 -24.128816 -0.217389 1.603907 43.546526 1.931601 12.956632 5.761924 2.819100 -0.000000 -36.310700 9.672963 -1.897900 2.002786 9.826060 -3.815145 -30.593302 2.335908 -1.052937 26.704048 -0.838041 -1.799858 -8.110667 -0.165300 -0.000000 -44.533100
-5.671848 17.424076 1.018561 107.554780 86.654294 131.430435 -11.106246 3.110570 1.310536 -9.409583 5.526760 -25.528710 -0.285410 1.615710 43.619928 1.999467 13.373748 4.538321 2.705400 -0.000000 -34.828700 9.750895 -1.947487 1.973764 9.760769 -3.830372 -29.621686 2.327051 -0.965375 25.547055 -0.743858 -1.654718 -6.871714 -0.242400 -0.000000 -46.526400
-5.504022 17.474052 1.021704 105.791021 86.845898 129.838133 -10.973181 2.961993 1.309684 -9.923059 5.196438 -26.885432 -0.357318 1.618898 43.537420 2.064550 13.705891 3.342661 2.562800 0.000000 -33.562000 9.825557 -2.004417 1.920888 9.746861 -3.931311 -28.614545 2.329478 -0.877799 24.302742 -0.647242 -1.498007 -5.555410 -0.314800 0.000000 -48.497100
-5.335552 17.522522 1.023368 104.605418 87.040926 128.812648 -10.833378 2.814281 1.329447 -10.419270 4.775998 -28.197285 -0.434640 1.612156 43.295129 2.126717 13.955319 2.153151 2.391900 0.000000 -32.527500 9.896023 -2.067360 1.848996 9.779765 -4.102633 -27.578640 2.339912 -0.789476 22.985625 -0.555512 -1.361877 -4.182660 -0.382700 0.000000 -50.361800
-5.165996 17.568515 1.023790 103.958096 87.237207 128.319803 -10.686311 2.670305 1.373936 -10.902706 4.259691 -29.464793 -0.518980 1.594303 42.888459 2.185210 14.118339 0.961510 2.194400 -0.000000 -31.780900 9.962609 -2.133910 1.763312 9.849141 -4.327434 -26.530519 2.355038 -0.701295 21.629229 -0.473596 -1.265501 -2.785652 -0.447600 -0.000000 -52.008000
-4.994876 17.611080 1.023055 103.774674 87.434235 128.292085 -10.531912 2.532663 1.446440 -11.375273 3.647216 -30.691722 -0.612334 1.564455 42.317757 2.237844 14.180729 -0.242876 1.970000 0.000000 -31.231301 10.025131 -2.202685 1.671227 9.943991 -4.579414 -25.486247 2.371160 -0.614421 20.268363 -0.405162 -1.224943 -1.391940 -0.512700 0.000000 -53.405000
